<svg id="SvgjsSvg1001" width="288" height="288" xmlns="http://www.w3.org/2000/svg" version="1.1" xmlns:xlink="http://www.w3.org/1999/xlink" xmlns:svgjs="http://svgjs.com/svgjs"><defs id="SvgjsDefs1002"></defs><g id="SvgjsG1008" transform="matrix(1,0,0,1,0,0)"><svg xmlns="http://www.w3.org/2000/svg" enable-background="new 0 0 24 24" viewBox="0 0 24 24" width="288" height="288"><path d="M8.7,7.3c-0.4-0.4-1-0.4-1.4,0c-0.4,0.4-0.4,1,0,1.4l3.3,3.3l-3.3,3.3C7.1,15.5,7,15.7,7,16c0,0.6,0.4,1,1,1	c0.3,0,0.5-0.1,0.7-0.3l4-4c0,0,0,0,0,0c0.4-0.4,0.4-1,0-1.4L8.7,7.3z M16,7c-0.6,0-1,0.4-1,1v8c0,0.6,0.4,1,1,1s1-0.4,1-1V8
	C17,7.4,16.6,7,16,7z" fill="#ffffff" class="color000 svgShape"></path></svg></g></svg>